# xmcd
#
# Track frame offsets: 
#        150
#        24952
#        50710
#        63969
#        79682
#        84112
#        104160
#        121449
#        144238
#
# Disc length: 2129 seconds
#
# Revision: 0
# Processed by: cddbd v1.5.2PL0 Copyright (c) Steve Scherf et al.
# Submitted via: ExactAudioCopy v1.0b3
#
DISCID=6e084f09
DTITLE=Christian Kjellvander - The Pitcher
DYEAR=2013
DGENRE=Country
TTITLE0=The Mariner
TTITLE1=The Zenith Sunset
TTITLE2=The Trip
TTITLE3=The Woods
TTITLE4=The Field Before
TTITLE5=The Crow
TTITLE6=The Valley
TTITLE7=The Island
TTITLE8=The Bloodline
EXTD=
EXTT0=
EXTT1=
EXTT2=
EXTT3=
EXTT4=
EXTT5=
EXTT6=
EXTT7=
EXTT8=
PLAYORDER=
